<!-- Generated by IcoMoon.io -->
<svg version="1.1" xmlns="http://www.w3.org/2000/svg" width="32" height="32" viewBox="0 0 32 32">
<title>menu</title>
<path d="M24.96 22.4c0.707 0 1.28 0.573 1.28 1.28s-0.573 1.28-1.28 1.28h-20.48c-0.707 0-1.28-0.573-1.28-1.28s0.573-1.28 1.28-1.28h20.48zM18.56 14.72c0.707 0 1.28 0.573 1.28 1.28s-0.573 1.28-1.28 1.28h-14.080c-0.707 0-1.28-0.573-1.28-1.28s0.573-1.28 1.28-1.28h14.080zM27.52 7.040c0.707 0 1.28 0.573 1.28 1.28s-0.573 1.28-1.28 1.28h-23.040c-0.707 0-1.28-0.573-1.28-1.28s0.573-1.28 1.28-1.28h23.040z"></path>
</svg>
